<svg width="64" height="64" viewBox="0 0 64 64" fill="none" xmlns="http://www.w3.org/2000/svg">
<rect width="64" height="64" rx="16.7619" fill="url(#paint0_radial_2843_35440)"/>
<path d="M39.6191 15.8477C44.332 15.8477 48.1526 19.6681 48.1526 24.3809C48.1526 27.7101 46.2458 30.5934 43.4651 31.9998C46.2459 33.4063 48.1526 36.2899 48.1526 39.6191C48.1525 44.3319 44.3319 48.1524 39.6191 48.1524H23.162C19.1225 48.1524 15.8477 44.8777 15.8477 40.8382V23.8933C15.8477 19.4498 19.4499 15.8477 23.8934 15.8477H39.6191Z" fill="white"/>
<circle cx="36.2666" cy="31.9995" r="2.13333" fill="#240F24"/>
<circle cx="27.7332" cy="31.9995" r="2.13333" fill="#240F24"/>
<path d="M34.1333 10.3623C34.1333 13.392 36.5893 15.848 39.619 15.848C36.5893 15.848 34.1333 18.3041 34.1333 21.3337C34.1333 18.3041 31.6773 15.848 28.6476 15.848C31.6773 15.848 34.1333 13.392 34.1333 10.3623Z" fill="#240F24"/>
<path d="M39.9237 8.5332C39.9237 9.71141 40.8789 10.6665 42.0571 10.6665C40.8789 10.6665 39.9237 11.6217 39.9237 12.7999C39.9237 11.6217 38.9686 10.6665 37.7904 10.6665C38.9686 10.6665 39.9237 9.71141 39.9237 8.5332Z" fill="#240F24"/>
<defs>
<radialGradient id="paint0_radial_2843_35440" cx="0" cy="0" r="1" gradientUnits="userSpaceOnUse" gradientTransform="translate(59.7333 2.74286) rotate(135) scale(61.2018)">
<stop stop-color="#DCE54E"/>
<stop offset="1" stop-color="#42D36D"/>
</radialGradient>
</defs>
</svg>
